<svg width="120" height="40" viewBox="0 0 120 40" fill="none" xmlns="http://www.w3.org/2000/svg">
  <!-- 'R' Brain Icon -->
  <circle cx="20" cy="20" r="16" fill="#6C63FF"/>
  <path d="M14 12h10c3.3 0 6 2.7 6 6s-2.7 6-6 6h-4l6 8h-4l-6-8h-2v8h-4V12z" fill="white"/>
  <!-- Brain circuits -->
  <path d="M22 18c1.1 0 2 0.9 2 2s-0.9 2-2 2-2-0.9-2-2 0.9-2 2-2z" fill="white"/>
  <path d="M16 16c0.55 0 1 0.45 1 1s-0.45 1-1 1-1-0.45-1-1 0.45-1 1-1z" fill="white"/>
  
  <!-- 'Reasonly' text -->
  <path d="M44 16h4c2 0 3 1 3 2.5s-1 2.5-3 2.5h-1v4h-3v-9z M44 19h1c0.6 0 1-0.4 1-1s-0.4-1-1-1h-1v2z" fill="#2A2B3A"/>
  <path d="M52 16h3v4c0 1.1 0.4 2 1.5 2s1.5-0.9 1.5-2v-4h3v4c0 2.8-1.6 5-4.5 5s-4.5-2.2-4.5-5v-4z" fill="#2A2B3A"/>
  <path d="M63 16h3v3h1c1.7 0 3 1.3 3 3s-1.3 3-3 3h-4v-9z M66 22h1c0.6 0 1-0.4 1-1s-0.4-1-1-1h-1v2z" fill="#2A2B3A"/>
  <path d="M71 16h6v2h-3v1.5h2v2h-2v1.5h3v2h-6v-9z" fill="#2A2B3A"/>
  <path d="M79 16h3v7h3v2h-6v-9z" fill="#2A2B3A"/>
  <path d="M86 16h3v3.5l3-3.5h3l-3 4 3 5h-3l-2-3-1 1v2h-3v-9z" fill="#2A2B3A"/>
</svg>
